<?xml version="1.0" encoding="UTF-8" standalone="no"?>
<!-- Created with Inkscape (http://www.inkscape.org/) -->

<svg
   width="2012.9568"
   height="1281.3369"
   viewBox="0 0 532.59485 339.02039"
   version="1.1"
   id="svg1"
   xml:space="preserve"
   xmlns="http://www.w3.org/2000/svg"
   xmlns:svg="http://www.w3.org/2000/svg"><defs
     id="defs1"><linearGradient
       id="swatch15"><stop
         style="stop-color:#000000;stop-opacity:1;"
         offset="0"
         id="stop15" /></linearGradient><linearGradient
       id="swatch37"><stop
         style="stop-color:#808080;stop-opacity:1;"
         offset="0"
         id="stop37" /></linearGradient><linearGradient
       id="swatch29"><stop
         style="stop-color:#2a2a2a;stop-opacity:1;"
         offset="0"
         id="stop29" /></linearGradient><linearGradient
       id="swatch28"><stop
         style="stop-color:#000000;stop-opacity:1;"
         offset="0"
         id="stop28" /></linearGradient><linearGradient
       id="swatch27"><stop
         style="stop-color:#000000;stop-opacity:1;"
         offset="0"
         id="stop27" /></linearGradient><linearGradient
       id="swatch26"><stop
         style="stop-color:#000000;stop-opacity:1;"
         offset="0"
         id="stop26" /></linearGradient><linearGradient
       id="swatch25"><stop
         style="stop-color:#000000;stop-opacity:1;"
         offset="0"
         id="stop25" /></linearGradient><linearGradient
       id="swatch24"><stop
         style="stop-color:#000000;stop-opacity:1;"
         offset="0"
         id="stop24" /></linearGradient><linearGradient
       id="swatch22"><stop
         style="stop-color:#000000;stop-opacity:1;"
         offset="0"
         id="stop22" /></linearGradient><linearGradient
       id="swatch20"><stop
         style="stop-color:#000000;stop-opacity:1;"
         offset="0"
         id="stop20" /></linearGradient><linearGradient
       id="swatch19"><stop
         style="stop-color:#000000;stop-opacity:1;"
         offset="0"
         id="stop19" /></linearGradient><linearGradient
       id="swatch11"><stop
         style="stop-color:#000000;stop-opacity:1;"
         offset="0"
         id="stop11" /></linearGradient></defs><g
     id="g6"
     transform="matrix(8.5368631,0,0,8.5368631,-7452.2274,-32258.14)"
     style="fill:#ffffff;fill-opacity:1"><path
       id="path47-7-1-3-3-3-1-9-8-55-0-0-3-1-7-2"
       style="fill:#ffffff;fill-opacity:1;stroke-width:0.0918695"
       d="m 881.87101,3782.4786 -2.35828,2e-4 c -0.46005,0 -0.75948,0.3349 -0.55119,0.6192 l 0.0116,0.015 c 0.005,0.01 0.29992,0.3958 0.30312,0.4001 0.003,0 0.005,0.01 0.007,0.01 0.60157,0.8098 1.05151,1.322 2.42686,1.322 h 0.82168 2.43931 c -0.36203,-0.1573 -0.72526,-0.3593 -0.95002,-0.5303 -0.74514,-0.5669 -1.8453,-1.722 -1.91354,-1.7599 0,0 -0.0738,-0.063 -0.16069,-0.071 -0.087,-0.01 -0.0896,0 -0.0896,0 z" /><path
       id="path47-7-1-3-3-3-1-9-9-2-7-2-5-5-8-1"
       style="fill:#ffffff;fill-opacity:1;stroke-width:0.206203"
       d="m 293.99826,1215.0057 0.0217,0.041 c 0.008,0.015 0.56041,1.0669 0.56637,1.0785 0.004,0.01 0.008,0.014 0.0119,0.021 1.12404,2.1836 1.96475,3.5645 4.5346,3.5647 h 1.53531 6.7815 0.002 18.33687 1.47639 5.30666 1.47639 3.16105 c 0,0 -1.59953,-2.7573 -3.17138,-4.483 -0.48985,-0.5377 -1.45774,-1.2306 -2.13992,-1.48 -0.18509,-0.068 -0.36411,-0.1275 -0.5209,-0.1772 -0.29458,-0.093 -0.78728,-0.1725 -1.09606,-0.1897 l -0.35037,-0.02 c -0.19179,-0.011 -0.38369,-0.019 -0.57567,-0.025 h -3.13986 -1.4764 -5.30665 -1.4764 -18.33686 -0.002 l -4.58833,4e-4 a 1.1490183,1.1490183 121.6746 0 0 -1.02994,1.6693 z"
       transform="matrix(-0.53518667,0,0,-0.37089223,1064.3207,4234.86)" /><path
       id="path48-7-8-4-4-0-5-39-1-1-4-9-2-5-19"
       style="fill:#ffffff;fill-opacity:1;stroke-width:0.259375"
       d="m 905.91872,3778.9315 c -0.0149,0.04 -0.0911,0.11 -0.0294,0.384 0.0617,0.2741 0.52854,0.7657 0.95005,1.4974 l 0.4002,0.6891 h 9.4e-4 c 0.0314,0.058 0.0635,0.1162 0.0967,0.1736 l 3.23978,5.579 h 0.83249 3.31498 2.33188 15.76327 l 1.68406,-0.1766 c 0.0747,-0.2296 0.13822,-0.4596 0.19055,-0.6885 h 0.0205 c 1.18564,-3.6421 -1.19206,-7.5075 -4.63412,-7.5336 l -13.50926,-0.1019 -8.35985,-0.022 v -0.01 c 0,0 -1.86543,-0.07 -2.0481,-0.01 -0.18265,0.062 -0.23022,0.1656 -0.24523,0.2052 z" /><path
       id="path49-7-9-8-0-1-7-1-4-7-8-8-7-8-7"
       style="fill:#ffffff;fill-opacity:1;stroke-width:0.267828"
       d="m 929.00858,3778.7765 h 2.2e-4 -0.0265 l -0.93158,0.012 -2.63391,0.035 -2.02024,-0.017 1.06432,1.438 c 0.94642,1.2785 1.17832,2.9276 0.63469,4.26 v 1e-4 l -0.21325,0.4259 c -0.062,0.1156 -0.12328,0.2315 -0.18517,0.3471 l -1.2351,2.2428 h 2.2e-4 l -0.61744,1.0597 4.1e-4,10e-5 -4.69529,8.0389 -4.4838,7.6914 1.02228,1.8818 -0.005,0.01 3.94645,7.159 c 0.49369,0.9378 0.45441,0.9594 0.96918,0.031 l 5.33906,-8.9523 0.61191,-1.1038 1.76317,-2.9561 7.2854,-13.135 c 2.0639,-3.7211 -0.45695,-8.4088 -4.53755,-8.4376 h -0.1438 -4.2e-4 c -0.17082,-0.018 -0.34471,-0.027 -0.52165,-0.027 z" /><path
       id="path23-1-7-6-8-0-8-3-7-6-7-6-4-6-3-6"
       style="fill:#ffffff;fill-opacity:1;stroke-width:0.282434"
       d="m 904.28573,3786.2557 h -2.20717 l -10.52392,0.022 -0.54708,-0.022 -2.78302,0.054 c -0.45914,0 -0.54487,0.3133 -0.4648,0.5258 l 0.17676,0.2863 0.0116,0.02 c 0.004,0.01 0.30318,0.5032 0.3064,0.5086 9.4e-4,0 0.004,0.01 0.007,0.01 0.47363,0.8036 0.85419,1.3767 1.65742,1.5901 0.23589,0.068 0.50871,0.1025 0.83225,0.1026 h 0.79862 2.13417 c 0.93291,0 1.79395,0.4763 2.25495,1.2473 l 0.0781,0.1308 h 8.2e-4 l 1.10791,1.8491 -4.2e-4,2e-4 0.19402,0.3222 0.10729,0.1793 4.2e-4,-2e-4 1.90454,3.1662 h -2.3e-4 -4.2e-4 -4.1e-4 v 3e-4 h -2.2e-4 v 2e-4 h -2.2e-4 -2.3e-4 v -2e-4 h -2.1e-4 -2.3e-4 v 2e-4 l -2.3e-4,2e-4 -4.1e-4,3e-4 -4.1e-4,1e-4 v 3e-4 2e-4 c -2.9e-4,0 -8.3e-4,0 -8.3e-4,0 l -2.2e-4,3e-4 v 1e-4 h -2.2e-4 -2.2e-4 v 3e-4 h -2.2e-4 -2.2e-4 -2.3e-4 -4.1e-4 -2.2e-4 -2.2e-4 l 3.56615,5.9525 h 2.3e-4 c 0.006,0 0.0123,0 0.0181,-0.01 l 5.11496,8.5036 0.005,0.01 3.50931,5.7955 c 1.53335,2.5324 4.9348,2.5265 6.33854,0.01 l 1.5685,-2.7389 h 2.2e-4 c 0.004,0 0.007,-0.01 0.01,-0.013 h 4.2e-4 l 0.37896,-0.6504 0.0989,-0.1554 h 2.3e-4 l 0.69487,-1.1969 0.59398,-1.054 h 0.0182 l 1.49593,-2.5766 -1.77845,0.2388 c -1.7627,0.2363 -3.5043,-0.5242 -4.3453,-1.8975 l -10.37992,-16.9468 h 2.3e-4 l -0.12167,-0.2028 h -9.4e-4 z m -8.2964,4.4793 0.005,0.01 0.0177,-0.01 z" /><path
       id="path271-4-7-5-0-1-2-2"
       style="fill:#ffffff;fill-opacity:1;stroke-width:0.0918695"
       d="m 898.11922,3781.0652 2.35827,-3e-4 c 0.46005,0 0.75948,-0.3348 0.5512,-0.619 l -0.0116,-0.015 c -0.005,-0.01 -0.29992,-0.3958 -0.30311,-0.4001 -0.003,0 -0.005,-0.01 -0.007,-0.01 -0.60157,-0.8099 -1.05151,-1.3221 -2.42686,-1.3221 h -0.82167 -2.43932 c 0.36203,0.1574 0.72526,0.3594 0.95,0.5303 0.74516,0.567 1.84532,1.7221 1.91356,1.7599 0,0 0.0737,0.063 0.16069,0.071 0.087,0.01 0.0896,0 0.0896,0 z" /><path
       id="path272-6-3-0-7-4-4-9"
       style="fill:#ffffff;fill-opacity:1;stroke-width:0.206203"
       d="m 293.99826,1215.0057 0.0217,0.041 c 0.008,0.015 0.56041,1.0669 0.56637,1.0785 0.004,0.01 0.008,0.014 0.0119,0.021 1.12404,2.1836 1.96475,3.5645 4.5346,3.5647 h 1.53531 6.7815 0.002 18.33687 1.47639 5.30666 1.47639 3.16105 c 0,0 -1.59953,-2.7573 -3.17138,-4.483 -0.48985,-0.5377 -1.45774,-1.2306 -2.13992,-1.48 -0.18509,-0.068 -0.36411,-0.1275 -0.5209,-0.1772 -0.29458,-0.093 -0.78728,-0.1725 -1.09606,-0.1897 l -0.35037,-0.02 c -0.19179,-0.011 -0.38369,-0.019 -0.57567,-0.025 h -3.13986 -1.4764 -5.30665 -1.4764 -18.33686 -0.002 l -4.58833,4e-4 a 1.1490183,1.1490183 121.6746 0 0 -1.02994,1.6693 z"
       transform="matrix(0.53518667,0,0,0.37089223,715.66951,3328.6838)" /></g></svg>
